<?xml version="1.0" encoding="UTF-8" standalone="no"?>
<svg
   width="24"
   height="24.002"
   viewBox="0 0 24 24.002"
   version="1.1"
   id="svg896"
   sodipodi:docname="location.svg"
   inkscape:version="1.1.1 (3bf5ae0d25, 2021-09-20)"
   xmlns:inkscape="http://www.inkscape.org/namespaces/inkscape"
   xmlns:sodipodi="http://sodipodi.sourceforge.net/DTD/sodipodi-0.dtd"
   xmlns="http://www.w3.org/2000/svg"
   xmlns:svg="http://www.w3.org/2000/svg">
  <defs
     id="defs900" />
  <sodipodi:namedview
     id="namedview898"
     pagecolor="#ffffff"
     bordercolor="#666666"
     borderopacity="1.0"
     inkscape:pageshadow="2"
     inkscape:pageopacity="0.0"
     inkscape:pagecheckerboard="0"
     showgrid="false"
     inkscape:zoom="34.330471"
     inkscape:cx="11.986436"
     inkscape:cy="12.001"
     inkscape:window-width="1920"
     inkscape:window-height="1020"
     inkscape:window-x="0"
     inkscape:window-y="36"
     inkscape:window-maximized="1"
     inkscape:current-layer="g894" />
  <g
     fill="none"
     id="g888">
    <path
       d="M0 0h24v24.002H0z"
       id="path884" />
    <path
       d="M0 0h24v24.002H0z"
       id="path886" />
  </g>
  <g
     fill="#757575"
     id="g894">
    <ellipse
       cx="12.002"
       cy="12.004"
       id="circle890"
       rx="3.0009449"
       ry="3"
       style="fill:#ffffff;fill-opacity:1" />
    <path
       d="M22.002 11.004h-2.069a8.01 8.01 0 0 0-6.931-6.931V2.004h-2v2.069a8.01 8.01 0 0 0-6.931 6.931H2.002v2h2.069a8.01 8.01 0 0 0 6.931 6.931v2.069h2v-2.069a8.01 8.01 0 0 0 6.931-6.931h2.069v-2zm-10 7c-3.309 0-6-2.691-6-6s2.691-6 6-6 6 2.691 6 6-2.691 6-6 6z"
       id="path892"
       style="fill:#ffffff;fill-opacity:1" />
  </g>
</svg>
