<?xml version="1.0" encoding="UTF-8"?><!DOCTYPE svg PUBLIC "-//W3C//DTD SVG 1.1//EN" "http://www.w3.org/Graphics/SVG/1.1/DTD/svg11.dtd"><svg xmlns="http://www.w3.org/2000/svg" xmlns:xlink="http://www.w3.org/1999/xlink" version="1.1" id="Layer_1" x="0px" y="0px" width="72px" height="72px" viewBox="0 0 72 72" xml:space="preserve"><path fill="#FFAA45" d="M31.007 24.944a.998.998 0 0 1-.924-.617l-1.486-3.587a1 1 0 0 1 1.848-.766l1.486 3.587a1 1 0 0 1-.924 1.383z"/><path fill="#FFAA45" d="M42.48 52.643a.998.998 0 0 1-.924-.617l-1.486-3.587a1 1 0 0 1 1.848-.766l1.486 3.587a1 1 0 0 1-.924 1.383z"/><path fill="#FFAA45" d="M20.358 43.479a1 1 0 0 1-.383-1.924l3.587-1.486a1 1 0 0 1 .766 1.848l-3.587 1.486a1.002 1.002 0 0 1-.383.076z"/><path fill="#FFAA45" d="M48.056 32.007a1 1 0 0 1-.383-1.924l3.587-1.486a1.001 1.001 0 0 1 .766 1.848l-3.587 1.486a1.021 1.021 0 0 1-.383.076z"/><path fill="#FFAA45" d="M40.993 24.944a1 1 0 0 1-.923-1.383l1.486-3.587a1 1 0 1 1 1.848.766l-1.486 3.587a1 1 0 0 1-.925.617z"/><path fill="#FFAA45" d="M29.52 52.643a1 1 0 0 1-.923-1.383l1.486-3.587a1 1 0 1 1 1.848.766l-1.486 3.587c-.16.384-.532.617-.925.617z"/><path fill="#FFAA45" d="M23.944 32.007a.993.993 0 0 1-.382-.076l-3.587-1.486a1 1 0 0 1 .766-1.848l3.587 1.486a1 1 0 0 1-.384 1.924z"/><path fill="#FFAA45" d="M51.642 43.479a.993.993 0 0 1-.382-.076l-3.587-1.486a1 1 0 0 1 .766-1.848l3.587 1.486a1 1 0 0 1-.384 1.924z"/><circle fill="#FFAA45" cx="36" cy="36" r="10.128"/><path fill="#FFDA69" d="M35.997 27.869a8.11 8.11 0 0 1 7.513 5.02 8.074 8.074 0 0 1 0 6.221 8.075 8.075 0 0 1-4.399 4.399 8.085 8.085 0 0 1-3.107.621 8.108 8.108 0 0 1-7.513-5.02c-1.715-4.141.258-8.904 4.399-10.62a8.082 8.082 0 0 1 3.107-.621"/><metadata><rdf:RDF xmlns:rdf="http://www.w3.org/1999/02/22-rdf-syntax-ns#" xmlns:rdfs="http://www.w3.org/2000/01/rdf-schema#" xmlns:dc="http://purl.org/dc/elements/1.1/"><rdf:Description about="https://iconscout.com/legal#licenses" dc:title="sun,weather" dc:description="sun,weather" dc:publisher="Iconscout" dc:date="2017-09-19" dc:format="image/svg+xml" dc:language="en"><dc:creator><rdf:Bag><rdf:li>Amedia Utvikling</rdf:li></rdf:Bag></dc:creator></rdf:Description></rdf:RDF></metadata></svg>