<?xml version="1.0" encoding="UTF-8"?><!DOCTYPE svg PUBLIC "-//W3C//DTD SVG 1.1//EN" "http://www.w3.org/Graphics/SVG/1.1/DTD/svg11.dtd"><svg xmlns="http://www.w3.org/2000/svg" xmlns:xlink="http://www.w3.org/1999/xlink" version="1.1" id="Layer_1" x="0px" y="0px" width="72px" height="72px" viewBox="0 0 72 72" xml:space="preserve"><path fill="#45ABFF" d="M22.385 54.801a1.001 1.001 0 0 1-.937-1.351l4.594-12.25a1.001 1.001 0 0 1 1.873.703l-4.594 12.25a1 1 0 0 1-.936.648z"/><path fill="#45ABFF" d="M28.317 54.844a1.001 1.001 0 0 1-.937-1.351l4.594-12.25a1.001 1.001 0 0 1 1.873.703l-4.594 12.25a.999.999 0 0 1-.936.648z"/><path fill="#45ABFF" d="M20.009 45.913a1.001 1.001 0 0 1-.937-1.351l1.828-4.875a1.001 1.001 0 0 1 1.873.703l-1.828 4.875a.999.999 0 0 1-.936.648z"/><path fill="#868686" d="M40.714 17.156c-3.586 0-6.83 1.837-8.681 4.801a7.51 7.51 0 0 0-7.735 3.85 5.936 5.936 0 0 0-5.62 5.921c0 2.936 2.18 5.25 5.554 5.893 2.205.421 5.395.577 11.768.577 6.021 0 9.859-.302 12.019-.555 3.172-.372 5.303-2.591 5.303-5.522a5.493 5.493 0 0 0-2.359-4.52l.002-.194c-.001-5.653-4.599-10.251-10.251-10.251z"/><path fill="#BFBFBF" d="M48.843 28.764a8.32 8.32 0 0 0 .121-1.357 8.248 8.248 0 1 0-15.897-3.088 5.498 5.498 0 0 0-7.479 3.619 3.872 3.872 0 0 0-.981-.138 3.929 3.929 0 0 0-3.929 3.929c0 2.17 1.744 3.512 3.929 3.929s5.518.54 11.393.54 9.655-.292 11.786-.542c2.131-.25 3.536-1.583 3.536-3.536a3.524 3.524 0 0 0-2.479-3.356z"/><path fill="#E0E0E0" d="M24.607 29.833c.341 0 .666.057.981.138a5.497 5.497 0 0 1 7.479-3.619 8.247 8.247 0 0 1 7.647-5.162c4.203 0 7.664 3.144 8.177 7.207a7.72 7.72 0 0 0 .073-.992 8.248 8.248 0 1 0-15.897-3.088 5.498 5.498 0 0 0-7.479 3.619 3.872 3.872 0 0 0-.981-.138 3.929 3.929 0 0 0-3.929 3.929c0 .36.064.689.154 1.004.456-1.666 1.964-2.898 3.775-2.898z"/><path fill="#45ABFF" d="M38.868 45.301c-.955 0-1.733.769-1.75 1.72a1.749 1.749 0 0 0-1.75 3.03 1.752 1.752 0 0 0-.614 2.375 1.753 1.753 0 0 0 2.364.656 1.751 1.751 0 0 0 3.5 0 1.754 1.754 0 0 0 2.364-.657c.477-.826.2-1.885-.615-2.374a1.752 1.752 0 0 0 .614-2.375 1.753 1.753 0 0 0-2.364-.655 1.75 1.75 0 0 0-1.749-1.72z"/><path fill="#45ABFF" d="M47.843 39.369c-.955 0-1.733.769-1.75 1.72a1.749 1.749 0 0 0-1.75 3.03 1.752 1.752 0 0 0-.614 2.375 1.753 1.753 0 0 0 2.364.656 1.751 1.751 0 0 0 3.5 0 1.754 1.754 0 0 0 2.364-.657c.477-.826.2-1.885-.615-2.374a1.752 1.752 0 0 0 .614-2.375 1.753 1.753 0 0 0-2.364-.655 1.75 1.75 0 0 0-1.749-1.72z"/><path fill="#FFF" d="M41.841 50.902l-1.473-.851 1.473-.851a.75.75 0 1 0-.75-1.298l-1.473.851v-1.701a.75.75 0 0 0-1.5 0v1.701l-1.473-.851a.75.75 0 0 0-.75 1.298l1.473.851-1.473.851a.75.75 0 1 0 .751 1.298l1.473-.851v1.701a.75.75 0 0 0 1.5 0v-1.7l1.473.851a.75.75 0 1 0 .749-1.299z"/><path fill="#FFF" d="M50.816 44.969l-1.473-.851 1.473-.851a.75.75 0 1 0-.75-1.298l-1.473.851v-1.701a.75.75 0 0 0-1.5 0v1.701l-1.473-.851a.75.75 0 0 0-.75 1.298l1.473.851-1.473.851a.75.75 0 1 0 .751 1.298l1.473-.851v1.701a.75.75 0 0 0 1.5 0v-1.701l1.473.851a.75.75 0 1 0 .749-1.298z"/><metadata><rdf:RDF xmlns:rdf="http://www.w3.org/1999/02/22-rdf-syntax-ns#" xmlns:rdfs="http://www.w3.org/2000/01/rdf-schema#" xmlns:dc="http://purl.org/dc/elements/1.1/"><rdf:Description about="https://iconscout.com/legal#licenses" dc:title="heavy,sleet,weather" dc:description="heavy,sleet,weather" dc:publisher="Iconscout" dc:date="2017-09-19" dc:format="image/svg+xml" dc:language="en"><dc:creator><rdf:Bag><rdf:li>Amedia Utvikling</rdf:li></rdf:Bag></dc:creator></rdf:Description></rdf:RDF></metadata></svg>